<mxfile host="Electron" modified="2023-12-30T23:21:40.267Z" agent="Mozilla/5.0 (Windows NT 10.0; Win64; x64) AppleWebKit/537.36 (KHTML, like Gecko) draw.io/22.1.16 Chrome/120.0.6099.109 Electron/28.1.0 Safari/537.36" etag="uUv9NccClr0CVoLUb1GU" version="22.1.16" type="device">
  <diagram name="ページ1" id="LE8fIzdrHe0wcv1LTvfw">
    <mxGraphModel dx="4250" dy="2510" grid="1" gridSize="10" guides="1" tooltips="1" connect="1" arrows="1" fold="1" page="1" pageScale="1" pageWidth="1600" pageHeight="1200" math="0" shadow="0">
      <root>
        <mxCell id="0" />
        <mxCell id="cFaB45KztUIKXS-_cTrr-4" value="背景" style="locked=1;" parent="0" visible="0" />
        <mxCell id="cFaB45KztUIKXS-_cTrr-5" value="" style="rounded=0;whiteSpace=wrap;html=1;strokeWidth=3;" parent="cFaB45KztUIKXS-_cTrr-4" vertex="1">
          <mxGeometry x="1" y="1" width="1595" height="1180" as="geometry" />
        </mxCell>
        <mxCell id="cFaB45KztUIKXS-_cTrr-6" value="" style="rounded=0;whiteSpace=wrap;html=1;fillColor=#B3B3B3;fontColor=#333333;strokeColor=#666666;" parent="cFaB45KztUIKXS-_cTrr-4" vertex="1">
          <mxGeometry width="1595" height="60" as="geometry" />
        </mxCell>
        <mxCell id="cFaB45KztUIKXS-_cTrr-7" value="&lt;font style=&quot;font-size: 48px;&quot;&gt;×&lt;/font&gt;" style="rounded=0;whiteSpace=wrap;html=1;" parent="cFaB45KztUIKXS-_cTrr-4" vertex="1">
          <mxGeometry x="1550" y="10" width="40" height="40" as="geometry" />
        </mxCell>
        <mxCell id="cFaB45KztUIKXS-_cTrr-8" value="" style="rounded=0;whiteSpace=wrap;html=1;" parent="cFaB45KztUIKXS-_cTrr-4" vertex="1">
          <mxGeometry x="830" y="670" width="120" height="60" as="geometry" />
        </mxCell>
        <mxCell id="cFaB45KztUIKXS-_cTrr-9" value="ウインドウ" style="locked=1;" parent="0" />
        <mxCell id="cFaB45KztUIKXS-_cTrr-10" value="" style="rounded=0;whiteSpace=wrap;html=1;strokeWidth=3;" parent="cFaB45KztUIKXS-_cTrr-9" vertex="1">
          <mxGeometry x="1" y="1" width="1595" height="1180" as="geometry" />
        </mxCell>
        <mxCell id="cFaB45KztUIKXS-_cTrr-11" value="" style="rounded=0;whiteSpace=wrap;html=1;fillColor=#B3B3B3;fontColor=#333333;strokeColor=#666666;" parent="cFaB45KztUIKXS-_cTrr-9" vertex="1">
          <mxGeometry width="1595" height="60" as="geometry" />
        </mxCell>
        <mxCell id="cFaB45KztUIKXS-_cTrr-12" value="&lt;font style=&quot;font-size: 48px;&quot;&gt;×&lt;/font&gt;" style="rounded=0;whiteSpace=wrap;html=1;" parent="cFaB45KztUIKXS-_cTrr-9" vertex="1">
          <mxGeometry x="1550" y="10" width="40" height="40" as="geometry" />
        </mxCell>
        <mxCell id="cFaB45KztUIKXS-_cTrr-14" value="名称未設定レイヤ" style="" parent="0" />
        <mxCell id="logEHh8TvF2vUe_L7cXg-13" value="&lt;span style=&quot;font-size: 30px;&quot;&gt;事務担当者2の氏名&lt;/span&gt;" style="rounded=0;whiteSpace=wrap;html=1;align=right;dashed=1;dashPattern=8 8;verticalAlign=bottom;" vertex="1" parent="cFaB45KztUIKXS-_cTrr-14">
          <mxGeometry x="30" y="76" width="290" height="46" as="geometry" />
        </mxCell>
        <mxCell id="logEHh8TvF2vUe_L7cXg-14" value="&lt;span style=&quot;font-size: 30px;&quot;&gt;政治団体&lt;/span&gt;" style="rounded=0;whiteSpace=wrap;html=1;align=left;" vertex="1" parent="cFaB45KztUIKXS-_cTrr-14">
          <mxGeometry x="340" y="78" width="250" height="48" as="geometry" />
        </mxCell>
        <mxCell id="logEHh8TvF2vUe_L7cXg-15" value="&lt;span style=&quot;font-size: 30px;&quot;&gt;太郎&lt;/span&gt;" style="rounded=0;whiteSpace=wrap;html=1;align=left;" vertex="1" parent="cFaB45KztUIKXS-_cTrr-14">
          <mxGeometry x="670" y="78" width="250" height="48" as="geometry" />
        </mxCell>
        <mxCell id="logEHh8TvF2vUe_L7cXg-16" value="&lt;span style=&quot;font-size: 30px;&quot;&gt;(姓)&lt;/span&gt;" style="rounded=0;whiteSpace=wrap;html=1;align=right;dashed=1;dashPattern=8 8;verticalAlign=bottom;" vertex="1" parent="cFaB45KztUIKXS-_cTrr-14">
          <mxGeometry x="594" y="79" width="50" height="46" as="geometry" />
        </mxCell>
        <mxCell id="logEHh8TvF2vUe_L7cXg-17" value="&lt;span style=&quot;font-size: 30px;&quot;&gt;(名)&lt;/span&gt;" style="rounded=0;whiteSpace=wrap;html=1;align=right;dashed=1;dashPattern=8 8;verticalAlign=bottom;" vertex="1" parent="cFaB45KztUIKXS-_cTrr-14">
          <mxGeometry x="924" y="79" width="50" height="46" as="geometry" />
        </mxCell>
        <mxCell id="logEHh8TvF2vUe_L7cXg-18" value="&lt;font style=&quot;font-size: 30px;&quot;&gt;0123&lt;/font&gt;" style="rounded=0;whiteSpace=wrap;html=1;align=right;" vertex="1" parent="cFaB45KztUIKXS-_cTrr-14">
          <mxGeometry x="337" y="143" width="170" height="48" as="geometry" />
        </mxCell>
        <mxCell id="logEHh8TvF2vUe_L7cXg-19" value="&lt;span style=&quot;font-size: 30px;&quot;&gt;電話番号&lt;/span&gt;" style="rounded=0;whiteSpace=wrap;html=1;align=right;dashed=1;dashPattern=8 8;verticalAlign=bottom;" vertex="1" parent="cFaB45KztUIKXS-_cTrr-14">
          <mxGeometry x="7" y="145" width="310" height="46" as="geometry" />
        </mxCell>
        <mxCell id="logEHh8TvF2vUe_L7cXg-20" value="&lt;span style=&quot;font-size: 30px;&quot;&gt;45&lt;br&gt;&lt;/span&gt;" style="rounded=0;whiteSpace=wrap;html=1;align=right;" vertex="1" parent="cFaB45KztUIKXS-_cTrr-14">
          <mxGeometry x="567" y="143" width="170" height="48" as="geometry" />
        </mxCell>
        <mxCell id="logEHh8TvF2vUe_L7cXg-21" value="&lt;span style=&quot;font-size: 30px;&quot;&gt;－&lt;/span&gt;" style="rounded=0;whiteSpace=wrap;html=1;align=right;dashed=1;dashPattern=8 8;verticalAlign=bottom;" vertex="1" parent="cFaB45KztUIKXS-_cTrr-14">
          <mxGeometry x="518" y="145" width="40" height="46" as="geometry" />
        </mxCell>
        <mxCell id="logEHh8TvF2vUe_L7cXg-22" value="&lt;span style=&quot;font-size: 30px;&quot;&gt;678z&lt;br&gt;&lt;/span&gt;" style="rounded=0;whiteSpace=wrap;html=1;align=right;" vertex="1" parent="cFaB45KztUIKXS-_cTrr-14">
          <mxGeometry x="807" y="143" width="170" height="48" as="geometry" />
        </mxCell>
        <mxCell id="logEHh8TvF2vUe_L7cXg-23" value="&lt;span style=&quot;font-size: 30px;&quot;&gt;－&lt;/span&gt;" style="rounded=0;whiteSpace=wrap;html=1;align=right;dashed=1;dashPattern=8 8;verticalAlign=bottom;" vertex="1" parent="cFaB45KztUIKXS-_cTrr-14">
          <mxGeometry x="758" y="145" width="40" height="46" as="geometry" />
        </mxCell>
        <mxCell id="logEHh8TvF2vUe_L7cXg-24" value="" style="rounded=0;whiteSpace=wrap;html=1;align=left;" vertex="1" parent="cFaB45KztUIKXS-_cTrr-14">
          <mxGeometry x="990" y="78" width="250" height="48" as="geometry" />
        </mxCell>
        <mxCell id="logEHh8TvF2vUe_L7cXg-25" value="&lt;span style=&quot;font-size: 30px;&quot;&gt;(ミドルネーム)&lt;/span&gt;" style="rounded=0;whiteSpace=wrap;html=1;align=right;dashed=1;dashPattern=8 8;verticalAlign=bottom;" vertex="1" parent="cFaB45KztUIKXS-_cTrr-14">
          <mxGeometry x="1244" y="79" width="206" height="46" as="geometry" />
        </mxCell>
      </root>
    </mxGraphModel>
  </diagram>
</mxfile>
